<svg width="1121" height="400" viewBox="0 0 1121 400" fill="none" xmlns="http://www.w3.org/2000/svg">
<rect width="1121" height="400" fill="black"/>
<path d="M522.109 138.529H515.094V157.701H510.688V138.529H503.766V134.951H522.109V138.529ZM536.906 140.482C537.562 140.482 538.167 140.529 538.719 140.623C539.281 140.706 539.734 140.8 540.078 140.904L539.438 145.232C538.865 145.097 538.276 144.998 537.672 144.935C537.078 144.862 536.51 144.826 535.969 144.826C535.406 144.826 534.896 144.878 534.438 144.982C533.99 145.076 533.589 145.222 533.234 145.42C532.807 145.649 532.443 145.941 532.141 146.295C531.839 146.649 531.589 147.066 531.391 147.545V157.701H527.047V140.795H531.094L531.266 143.185L531.297 143.56C531.984 142.602 532.807 141.852 533.766 141.31C534.724 140.758 535.771 140.482 536.906 140.482ZM545.141 140.795H554.344V154.17H558.922V157.701H545.141V154.17H549.953V144.342H545.141V140.795ZM549.641 136.467C549.641 136.133 549.698 135.826 549.812 135.545C549.938 135.253 550.109 135.003 550.328 134.795C550.547 134.597 550.807 134.441 551.109 134.326C551.422 134.211 551.766 134.154 552.141 134.154C552.911 134.154 553.521 134.373 553.969 134.81C554.427 135.237 554.656 135.79 554.656 136.467C554.656 137.144 554.427 137.701 553.969 138.138C553.521 138.566 552.911 138.779 552.141 138.779C551.766 138.779 551.422 138.722 551.109 138.607C550.807 138.493 550.547 138.331 550.328 138.123C550.109 137.925 549.938 137.685 549.812 137.404C549.698 137.112 549.641 136.8 549.641 136.467ZM568.578 157.701L562.125 140.795H566.656L570.375 152.717L570.609 153.904L570.844 152.717L574.547 140.795H579.078L572.656 157.701H568.578ZM583.578 140.795H592.781V154.17H597.359V157.701H583.578V154.17H588.391V144.342H583.578V140.795ZM588.078 136.467C588.078 136.133 588.135 135.826 588.25 135.545C588.375 135.253 588.547 135.003 588.766 134.795C588.984 134.597 589.245 134.441 589.547 134.326C589.859 134.211 590.203 134.154 590.578 134.154C591.349 134.154 591.958 134.373 592.406 134.81C592.865 135.237 593.094 135.79 593.094 136.467C593.094 137.144 592.865 137.701 592.406 138.138C591.958 138.566 591.349 138.779 590.578 138.779C590.203 138.779 589.859 138.722 589.547 138.607C589.245 138.493 588.984 138.331 588.766 138.123C588.547 137.925 588.375 137.685 588.25 137.404C588.135 137.112 588.078 136.8 588.078 136.467ZM612.203 157.701C612.099 157.493 612.01 157.253 611.938 156.982C611.865 156.711 611.802 156.425 611.75 156.123C611.51 156.383 611.234 156.628 610.922 156.857C610.609 157.086 610.266 157.284 609.891 157.451C609.505 157.628 609.083 157.763 608.625 157.857C608.167 157.961 607.672 158.013 607.141 158.013C606.276 158.013 605.479 157.888 604.75 157.638C604.031 157.388 603.411 157.04 602.891 156.592C602.37 156.144 601.964 155.612 601.672 154.998C601.38 154.373 601.234 153.696 601.234 152.967C601.234 152.029 601.417 151.201 601.781 150.482C602.146 149.753 602.693 149.154 603.422 148.685C604.078 148.258 604.885 147.935 605.844 147.717C606.812 147.487 607.922 147.373 609.172 147.373H611.594V146.373C611.594 145.977 611.531 145.623 611.406 145.31C611.281 144.987 611.094 144.711 610.844 144.482C610.583 144.243 610.255 144.06 609.859 143.935C609.474 143.8 609.021 143.732 608.5 143.732C608.042 143.732 607.646 143.79 607.312 143.904C606.979 144.008 606.708 144.159 606.5 144.357C606.312 144.534 606.172 144.748 606.078 144.998C605.995 145.248 605.953 145.524 605.953 145.826H601.609C601.609 145.107 601.766 144.425 602.078 143.779C602.401 143.133 602.87 142.566 603.484 142.076C604.089 141.586 604.828 141.201 605.703 140.92C606.589 140.628 607.599 140.482 608.734 140.482C609.755 140.482 610.703 140.607 611.578 140.857C612.464 141.107 613.229 141.477 613.875 141.967C614.521 142.456 615.026 143.076 615.391 143.826C615.755 144.566 615.938 145.425 615.938 146.404V153.654C615.938 154.56 615.995 155.31 616.109 155.904C616.224 156.498 616.391 157.008 616.609 157.435V157.701H612.203ZM608.062 154.654C608.5 154.654 608.906 154.602 609.281 154.498C609.656 154.394 609.995 154.258 610.297 154.092C610.599 153.925 610.859 153.737 611.078 153.529C611.297 153.31 611.469 153.092 611.594 152.873V149.967H609.375C608.698 149.967 608.12 150.034 607.641 150.17C607.161 150.295 606.771 150.472 606.469 150.701C606.167 150.941 605.943 151.227 605.797 151.56C605.651 151.883 605.578 152.237 605.578 152.623C605.578 152.925 605.63 153.206 605.734 153.467C605.849 153.717 606.01 153.93 606.219 154.107C606.427 154.274 606.682 154.409 606.984 154.513C607.297 154.607 607.656 154.654 608.062 154.654Z" fill="white"/>
<path d="M436.816 174.638L436.84 186.193C436.84 186.99 436.699 187.736 436.418 188.431C436.137 189.127 435.75 189.732 435.258 190.248C434.766 190.771 434.18 191.185 433.5 191.49C432.82 191.787 432.074 191.935 431.262 191.935C430.434 191.935 429.68 191.787 429 191.49C428.32 191.193 427.738 190.783 427.254 190.26C426.77 189.744 426.391 189.138 426.117 188.443C425.844 187.74 425.703 186.99 425.695 186.193L425.719 174.638H427.781L427.828 186.193C427.836 186.701 427.914 187.189 428.062 187.658C428.219 188.127 428.441 188.541 428.73 188.9C429.012 189.26 429.363 189.549 429.785 189.767C430.215 189.986 430.707 190.096 431.262 190.096C431.816 190.096 432.305 189.99 432.727 189.779C433.148 189.56 433.504 189.267 433.793 188.9C434.074 188.541 434.289 188.127 434.438 187.658C434.586 187.189 434.668 186.701 434.684 186.193L434.719 174.638H436.816ZM440.52 191.701V179.021H442.465L442.617 180.896C442.805 180.631 443.008 180.388 443.227 180.17C443.453 179.943 443.691 179.748 443.941 179.584C444.316 179.334 444.723 179.142 445.16 179.01C445.605 178.869 446.074 178.795 446.566 178.787C447.23 178.787 447.832 178.881 448.371 179.068C448.918 179.256 449.383 179.549 449.766 179.947C450.148 180.346 450.441 180.853 450.645 181.471C450.855 182.08 450.961 182.806 450.961 183.65V191.701H448.793V183.697C448.793 183.135 448.73 182.658 448.605 182.267C448.48 181.877 448.297 181.56 448.055 181.318C447.805 181.076 447.5 180.9 447.141 180.791C446.789 180.681 446.383 180.627 445.922 180.627C445.523 180.627 445.152 180.685 444.809 180.803C444.465 180.912 444.148 181.064 443.859 181.26C443.625 181.431 443.406 181.631 443.203 181.857C443.008 182.084 442.836 182.334 442.688 182.607V191.701H440.52ZM459.258 191.701L454.043 179.021H456.27L459.902 188.584L460.102 189.369L460.312 188.584L463.863 179.021H466.078L460.91 191.701H459.258ZM474.949 191.935C474.059 191.935 473.238 191.783 472.488 191.478C471.746 191.174 471.109 190.748 470.578 190.201C470.047 189.654 469.633 189.006 469.336 188.256C469.039 187.506 468.891 186.689 468.891 185.806V185.314C468.891 184.291 469.055 183.377 469.383 182.572C469.711 181.76 470.148 181.072 470.695 180.51C471.234 179.955 471.848 179.529 472.535 179.232C473.23 178.935 473.941 178.787 474.668 178.787C475.582 178.787 476.379 178.947 477.059 179.267C477.746 179.58 478.316 180.013 478.77 180.568C479.223 181.131 479.559 181.791 479.777 182.549C480.004 183.306 480.117 184.127 480.117 185.01V185.982H471.059V186.064C471.113 186.681 471.234 187.224 471.422 187.693C471.617 188.162 471.883 188.576 472.219 188.935C472.562 189.318 472.977 189.619 473.461 189.838C473.945 190.056 474.48 190.166 475.066 190.166C475.84 190.166 476.527 190.01 477.129 189.697C477.73 189.385 478.23 188.971 478.629 188.455L479.953 189.486C479.531 190.127 478.898 190.697 478.055 191.197C477.219 191.689 476.184 191.935 474.949 191.935ZM474.668 180.568C474.23 180.568 473.816 180.65 473.426 180.814C473.035 180.971 472.684 181.201 472.371 181.506C472.059 181.818 471.793 182.201 471.574 182.654C471.363 183.099 471.215 183.615 471.129 184.201H477.949V184.096C477.949 183.705 477.875 183.287 477.727 182.842C477.578 182.388 477.371 181.998 477.105 181.67C476.84 181.342 476.504 181.076 476.098 180.873C475.699 180.67 475.223 180.568 474.668 180.568ZM484.102 179.021H490.582V189.826H494.719V191.701H484.102V189.826H488.414V180.908H484.102V179.021ZM488.133 175.693C488.133 175.506 488.16 175.33 488.215 175.166C488.277 175.002 488.371 174.861 488.496 174.744C488.598 174.642 488.727 174.564 488.883 174.51C489.047 174.447 489.23 174.416 489.434 174.416C489.637 174.416 489.816 174.447 489.973 174.51C490.129 174.564 490.258 174.642 490.359 174.744C490.484 174.853 490.578 174.99 490.641 175.154C490.703 175.318 490.734 175.498 490.734 175.693C490.734 176.045 490.625 176.338 490.406 176.572C490.188 176.806 489.863 176.924 489.434 176.924C488.996 176.924 488.668 176.806 488.449 176.572C488.238 176.338 488.133 176.045 488.133 175.693ZM498.516 173.701H504.996V189.826H509.133V191.701H498.516V189.826H502.828V175.588H498.516V173.701ZM512.93 179.021H519.41V189.826H523.547V191.701H512.93V189.826H517.242V180.908H512.93V179.021ZM516.961 175.693C516.961 175.506 516.988 175.33 517.043 175.166C517.105 175.002 517.199 174.861 517.324 174.744C517.426 174.642 517.555 174.564 517.711 174.51C517.875 174.447 518.059 174.416 518.262 174.416C518.465 174.416 518.645 174.447 518.801 174.51C518.957 174.564 519.086 174.642 519.188 174.744C519.312 174.853 519.406 174.99 519.469 175.154C519.531 175.318 519.562 175.498 519.562 175.693C519.562 176.045 519.453 176.338 519.234 176.572C519.016 176.806 518.691 176.924 518.262 176.924C517.824 176.924 517.496 176.806 517.277 176.572C517.066 176.338 516.961 176.045 516.961 175.693ZM527.004 191.701V179.021H528.949L529.102 180.896C529.289 180.631 529.492 180.388 529.711 180.17C529.938 179.943 530.176 179.748 530.426 179.584C530.801 179.334 531.207 179.142 531.645 179.01C532.09 178.869 532.559 178.795 533.051 178.787C533.715 178.787 534.316 178.881 534.855 179.068C535.402 179.256 535.867 179.549 536.25 179.947C536.633 180.346 536.926 180.853 537.129 181.471C537.34 182.08 537.445 182.806 537.445 183.65V191.701H535.277V183.697C535.277 183.135 535.215 182.658 535.09 182.267C534.965 181.877 534.781 181.56 534.539 181.318C534.289 181.076 533.984 180.9 533.625 180.791C533.273 180.681 532.867 180.627 532.406 180.627C532.008 180.627 531.637 180.685 531.293 180.803C530.949 180.912 530.633 181.064 530.344 181.26C530.109 181.431 529.891 181.631 529.688 181.857C529.492 182.084 529.32 182.334 529.172 182.607V191.701H527.004ZM541.02 185.256C541.02 184.31 541.133 183.443 541.359 182.654C541.594 181.857 541.93 181.174 542.367 180.603C542.805 180.033 543.336 179.588 543.961 179.267C544.586 178.947 545.293 178.787 546.082 178.787C546.59 178.787 547.055 178.846 547.477 178.963C547.906 179.08 548.293 179.252 548.637 179.478C548.824 179.596 549 179.732 549.164 179.888C549.336 180.045 549.496 180.217 549.645 180.404L549.75 179.021H551.719V191.431C551.719 192.267 551.586 193.01 551.32 193.658C551.062 194.306 550.699 194.857 550.23 195.31C549.754 195.763 549.188 196.107 548.531 196.342C547.875 196.576 547.148 196.693 546.352 196.693C546.023 196.693 545.648 196.654 545.227 196.576C544.805 196.506 544.379 196.385 543.949 196.213C543.512 196.049 543.09 195.826 542.684 195.545C542.285 195.263 541.941 194.916 541.652 194.502L542.777 193.201C543.043 193.521 543.316 193.791 543.598 194.01C543.879 194.236 544.164 194.416 544.453 194.549C544.742 194.681 545.031 194.775 545.32 194.83C545.609 194.892 545.898 194.924 546.188 194.924C546.703 194.924 547.168 194.849 547.582 194.701C547.996 194.553 548.352 194.334 548.648 194.045C548.938 193.763 549.16 193.412 549.316 192.99C549.473 192.568 549.551 192.084 549.551 191.537V190.447C549.387 190.635 549.211 190.806 549.023 190.963C548.844 191.119 548.648 191.256 548.438 191.373C548.109 191.553 547.746 191.689 547.348 191.783C546.949 191.885 546.52 191.935 546.059 191.935C545.285 191.935 544.586 191.771 543.961 191.443C543.336 191.115 542.809 190.662 542.379 190.084C541.941 189.506 541.605 188.826 541.371 188.045C541.137 187.256 541.02 186.408 541.02 185.502V185.256ZM543.188 185.502C543.188 186.119 543.25 186.705 543.375 187.26C543.508 187.814 543.715 188.303 543.996 188.724C544.27 189.146 544.621 189.482 545.051 189.732C545.48 189.974 545.996 190.096 546.598 190.096C546.973 190.096 547.309 190.053 547.605 189.967C547.91 189.873 548.184 189.744 548.426 189.58C548.66 189.416 548.871 189.221 549.059 188.994C549.246 188.767 549.41 188.517 549.551 188.244V182.431C549.41 182.166 549.246 181.924 549.059 181.705C548.871 181.486 548.656 181.295 548.414 181.131C548.172 180.974 547.902 180.853 547.605 180.767C547.309 180.674 546.98 180.627 546.621 180.627C546.012 180.627 545.488 180.752 545.051 181.002C544.621 181.252 544.27 181.588 543.996 182.01C543.715 182.439 543.508 182.935 543.375 183.498C543.25 184.053 543.188 184.638 543.188 185.256V185.502ZM581.754 176.49H576.48V191.701H574.371V176.49H569.098V174.638H581.754V176.49ZM586.828 180.908C587 180.65 587.191 180.416 587.402 180.205C587.613 179.986 587.836 179.795 588.07 179.631C588.445 179.357 588.855 179.15 589.301 179.01C589.754 178.869 590.234 178.795 590.742 178.787C591.406 178.787 592.008 178.885 592.547 179.08C593.094 179.267 593.559 179.564 593.941 179.971C594.324 180.377 594.617 180.892 594.82 181.517C595.031 182.135 595.137 182.869 595.137 183.721V191.701H592.969V183.697C592.969 183.197 592.91 182.76 592.793 182.385C592.676 182.002 592.504 181.685 592.277 181.435C592.035 181.162 591.73 180.959 591.363 180.826C590.996 180.685 590.574 180.619 590.098 180.627C589.707 180.627 589.336 180.681 588.984 180.791C588.633 180.9 588.309 181.056 588.012 181.26C587.777 181.416 587.559 181.599 587.355 181.81C587.16 182.013 586.984 182.24 586.828 182.49V191.701H584.66V173.701H586.828V180.908ZM604.676 191.935C603.785 191.935 602.965 191.783 602.215 191.478C601.473 191.174 600.836 190.748 600.305 190.201C599.773 189.654 599.359 189.006 599.062 188.256C598.766 187.506 598.617 186.689 598.617 185.806V185.314C598.617 184.291 598.781 183.377 599.109 182.572C599.438 181.76 599.875 181.072 600.422 180.51C600.961 179.955 601.574 179.529 602.262 179.232C602.957 178.935 603.668 178.787 604.395 178.787C605.309 178.787 606.105 178.947 606.785 179.267C607.473 179.58 608.043 180.013 608.496 180.568C608.949 181.131 609.285 181.791 609.504 182.549C609.73 183.306 609.844 184.127 609.844 185.01V185.982H600.785V186.064C600.84 186.681 600.961 187.224 601.148 187.693C601.344 188.162 601.609 188.576 601.945 188.935C602.289 189.318 602.703 189.619 603.188 189.838C603.672 190.056 604.207 190.166 604.793 190.166C605.566 190.166 606.254 190.01 606.855 189.697C607.457 189.385 607.957 188.971 608.355 188.455L609.68 189.486C609.258 190.127 608.625 190.697 607.781 191.197C606.945 191.689 605.91 191.935 604.676 191.935ZM604.395 180.568C603.957 180.568 603.543 180.65 603.152 180.814C602.762 180.971 602.41 181.201 602.098 181.506C601.785 181.818 601.52 182.201 601.301 182.654C601.09 183.099 600.941 183.615 600.855 184.201H607.676V184.096C607.676 183.705 607.602 183.287 607.453 182.842C607.305 182.388 607.098 181.998 606.832 181.67C606.566 181.342 606.23 181.076 605.824 180.873C605.426 180.67 604.949 180.568 604.395 180.568ZM627.68 191.701V174.638H631.629C632.293 174.646 632.918 174.717 633.504 174.849C634.098 174.974 634.645 175.154 635.145 175.388C635.84 175.709 636.453 176.131 636.984 176.654C637.523 177.17 637.953 177.767 638.273 178.447C638.562 179.025 638.781 179.658 638.93 180.346C639.086 181.033 639.168 181.767 639.176 182.549V183.803C639.176 184.553 639.102 185.263 638.953 185.935C638.812 186.607 638.605 187.224 638.332 187.787C638.051 188.373 637.695 188.904 637.266 189.381C636.836 189.857 636.355 190.263 635.824 190.599C635.262 190.951 634.625 191.221 633.914 191.408C633.211 191.596 632.449 191.693 631.629 191.701H627.68ZM629.883 176.42V189.931H631.629C632.254 189.924 632.82 189.846 633.328 189.697C633.844 189.549 634.301 189.338 634.699 189.064C635.121 188.783 635.484 188.439 635.789 188.033C636.102 187.619 636.348 187.158 636.527 186.65C636.684 186.236 636.801 185.791 636.879 185.314C636.957 184.83 637 184.326 637.008 183.803V182.525C637 181.994 636.953 181.486 636.867 181.002C636.789 180.51 636.668 180.053 636.504 179.631C636.293 179.084 636.008 178.592 635.648 178.154C635.297 177.709 634.863 177.349 634.348 177.076C633.98 176.873 633.57 176.717 633.117 176.607C632.664 176.49 632.168 176.428 631.629 176.42H629.883ZM650.648 191.701C650.562 191.537 650.492 191.334 650.438 191.092C650.391 190.842 650.355 190.584 650.332 190.318C650.113 190.537 649.867 190.744 649.594 190.939C649.328 191.135 649.035 191.306 648.715 191.455C648.387 191.603 648.039 191.721 647.672 191.806C647.305 191.892 646.914 191.935 646.5 191.935C645.828 191.935 645.219 191.838 644.672 191.642C644.133 191.447 643.676 191.181 643.301 190.846C642.918 190.517 642.621 190.127 642.41 189.674C642.207 189.213 642.105 188.717 642.105 188.185C642.105 187.49 642.242 186.881 642.516 186.357C642.797 185.834 643.191 185.396 643.699 185.045C644.207 184.701 644.816 184.443 645.527 184.271C646.246 184.099 647.047 184.013 647.93 184.013H650.297V183.017C650.297 182.635 650.227 182.291 650.086 181.986C649.945 181.681 649.746 181.42 649.488 181.201C649.23 180.99 648.914 180.826 648.539 180.709C648.172 180.592 647.758 180.533 647.297 180.533C646.867 180.533 646.48 180.588 646.137 180.697C645.801 180.806 645.516 180.951 645.281 181.131C645.047 181.31 644.863 181.525 644.73 181.775C644.605 182.017 644.543 182.271 644.543 182.537H642.363C642.371 182.076 642.488 181.623 642.715 181.178C642.949 180.732 643.285 180.33 643.723 179.971C644.152 179.619 644.676 179.334 645.293 179.115C645.918 178.896 646.625 178.787 647.414 178.787C648.133 178.787 648.801 178.877 649.418 179.056C650.035 179.228 650.57 179.49 651.023 179.842C651.469 180.201 651.82 180.646 652.078 181.178C652.336 181.709 652.465 182.33 652.465 183.041V188.935C652.465 189.357 652.504 189.806 652.582 190.283C652.66 190.752 652.77 191.162 652.91 191.513V191.701H650.648ZM646.816 190.049C647.238 190.049 647.633 189.994 648 189.885C648.367 189.775 648.703 189.631 649.008 189.451C649.305 189.271 649.562 189.068 649.781 188.842C650 188.607 650.172 188.365 650.297 188.115V185.549H648.281C647.531 185.549 646.875 185.615 646.312 185.748C645.758 185.873 645.316 186.068 644.988 186.334C644.754 186.521 644.574 186.744 644.449 187.002C644.332 187.26 644.273 187.553 644.273 187.881C644.273 188.193 644.324 188.482 644.426 188.748C644.535 189.013 644.695 189.24 644.906 189.428C645.117 189.623 645.383 189.775 645.703 189.885C646.023 189.994 646.395 190.049 646.816 190.049ZM661.863 175.951V179.021H666.691V180.697H661.863V187.588C661.863 188.08 661.926 188.486 662.051 188.806C662.176 189.127 662.348 189.381 662.566 189.568C662.785 189.763 663.035 189.9 663.316 189.978C663.605 190.056 663.91 190.096 664.23 190.096C664.465 190.096 664.707 190.084 664.957 190.06C665.207 190.029 665.453 189.994 665.695 189.955C665.93 189.916 666.148 189.877 666.352 189.838C666.562 189.791 666.734 189.752 666.867 189.721L667.172 191.256C666.992 191.365 666.773 191.463 666.516 191.549C666.258 191.627 665.977 191.693 665.672 191.748C665.367 191.81 665.043 191.857 664.699 191.888C664.363 191.92 664.027 191.935 663.691 191.935C663.129 191.935 662.602 191.857 662.109 191.701C661.625 191.537 661.203 191.279 660.844 190.928C660.484 190.584 660.199 190.138 659.988 189.592C659.785 189.037 659.684 188.369 659.684 187.588V180.697H656.355V179.021H659.684V175.951H661.863ZM676.746 191.935C675.855 191.935 675.035 191.783 674.285 191.478C673.543 191.174 672.906 190.748 672.375 190.201C671.844 189.654 671.43 189.006 671.133 188.256C670.836 187.506 670.688 186.689 670.688 185.806V185.314C670.688 184.291 670.852 183.377 671.18 182.572C671.508 181.76 671.945 181.072 672.492 180.51C673.031 179.955 673.645 179.529 674.332 179.232C675.027 178.935 675.738 178.787 676.465 178.787C677.379 178.787 678.176 178.947 678.855 179.267C679.543 179.58 680.113 180.013 680.566 180.568C681.02 181.131 681.355 181.791 681.574 182.549C681.801 183.306 681.914 184.127 681.914 185.01V185.982H672.855V186.064C672.91 186.681 673.031 187.224 673.219 187.693C673.414 188.162 673.68 188.576 674.016 188.935C674.359 189.318 674.773 189.619 675.258 189.838C675.742 190.056 676.277 190.166 676.863 190.166C677.637 190.166 678.324 190.01 678.926 189.697C679.527 189.385 680.027 188.971 680.426 188.455L681.75 189.486C681.328 190.127 680.695 190.697 679.852 191.197C679.016 191.689 677.98 191.935 676.746 191.935ZM676.465 180.568C676.027 180.568 675.613 180.65 675.223 180.814C674.832 180.971 674.48 181.201 674.168 181.506C673.855 181.818 673.59 182.201 673.371 182.654C673.16 183.099 673.012 183.615 672.926 184.201H679.746V184.096C679.746 183.705 679.672 183.287 679.523 182.842C679.375 182.388 679.168 181.998 678.902 181.67C678.637 181.342 678.301 181.076 677.895 180.873C677.496 180.67 677.02 180.568 676.465 180.568ZM693.984 188.338C693.984 188.08 693.934 187.849 693.832 187.646C693.73 187.435 693.559 187.244 693.316 187.072C693.074 186.9 692.754 186.744 692.355 186.603C691.957 186.455 691.461 186.322 690.867 186.205C690.141 186.056 689.477 185.877 688.875 185.666C688.281 185.455 687.773 185.201 687.352 184.904C686.922 184.615 686.59 184.275 686.355 183.885C686.121 183.486 686.004 183.025 686.004 182.502C686.004 181.986 686.125 181.506 686.367 181.06C686.609 180.607 686.949 180.213 687.387 179.877C687.824 179.541 688.344 179.275 688.945 179.08C689.555 178.885 690.223 178.787 690.949 178.787C691.73 178.787 692.434 178.888 693.059 179.092C693.684 179.295 694.215 179.576 694.652 179.935C695.09 180.295 695.426 180.717 695.66 181.201C695.902 181.678 696.023 182.193 696.023 182.748H693.855C693.855 182.474 693.785 182.209 693.645 181.951C693.504 181.685 693.309 181.451 693.059 181.248C692.809 181.045 692.504 180.881 692.145 180.756C691.793 180.631 691.395 180.568 690.949 180.568C690.488 180.568 690.082 180.619 689.73 180.721C689.387 180.822 689.102 180.959 688.875 181.131C688.641 181.303 688.465 181.502 688.348 181.728C688.23 181.955 688.172 182.189 688.172 182.431C688.172 182.681 688.219 182.904 688.312 183.099C688.406 183.295 688.57 183.471 688.805 183.627C689.031 183.783 689.336 183.924 689.719 184.049C690.109 184.174 690.602 184.295 691.195 184.412C691.977 184.576 692.676 184.767 693.293 184.986C693.91 185.197 694.43 185.451 694.852 185.748C695.273 186.053 695.594 186.404 695.812 186.803C696.039 187.201 696.152 187.662 696.152 188.185C696.152 188.748 696.023 189.26 695.766 189.721C695.516 190.181 695.164 190.576 694.711 190.904C694.258 191.232 693.715 191.486 693.082 191.666C692.449 191.846 691.758 191.935 691.008 191.935C690.148 191.935 689.383 191.822 688.711 191.596C688.039 191.361 687.473 191.053 687.012 190.67C686.543 190.295 686.184 189.857 685.934 189.357C685.691 188.857 685.57 188.338 685.57 187.799H687.738C687.77 188.244 687.887 188.619 688.09 188.924C688.301 189.228 688.562 189.474 688.875 189.662C689.18 189.849 689.52 189.982 689.895 190.06C690.27 190.138 690.641 190.178 691.008 190.178C691.586 190.178 692.09 190.111 692.52 189.978C692.949 189.838 693.285 189.646 693.527 189.404C693.676 189.256 693.789 189.092 693.867 188.912C693.945 188.732 693.984 188.541 693.984 188.338Z" fill="white"/>
<g clip-path="url(#clip0_287_4817)">
<mask id="mask0_287_4817" style="mask-type:luminance" maskUnits="userSpaceOnUse" x="466" y="222" width="190" height="53">
<path d="M466 222.701H656V274.701H466V222.701Z" fill="white"/>
</mask>
<g mask="url(#mask0_287_4817)">
<path d="M467.36 253.218H469.578C470.369 253.218 471.01 253.826 471.01 254.576V267.06C471.01 270.81 474.215 273.849 478.169 273.849H483.894C484.211 273.849 484.467 273.606 484.467 273.306V265.689C484.467 265.389 484.211 265.146 483.894 265.146H479.5C478.709 265.146 478.068 264.538 478.068 263.788V233.614C478.068 232.864 478.709 232.256 479.5 232.256H483.894C484.211 232.256 484.467 232.013 484.467 231.713V224.096C484.467 223.796 484.211 223.553 483.894 223.553H478.169C474.215 223.553 471.01 226.592 471.01 230.341V242.818C471.01 243.568 470.369 244.176 469.578 244.176H467.36C467.044 244.176 466.787 244.419 466.787 244.719V252.675C466.787 252.975 467.044 253.218 467.36 253.218Z" fill="#F9AB00"/>
<path d="M467.36 253.218H469.578C470.369 253.218 471.01 253.826 471.01 254.576V267.06C471.01 270.81 474.215 273.849 478.169 273.849H483.894C484.211 273.849 484.467 273.606 484.467 273.306V265.689C484.467 265.389 484.211 265.146 483.894 265.146H479.5C478.709 265.146 478.068 264.538 478.068 263.788V233.614C478.068 232.864 478.709 232.256 479.5 232.256H483.894C484.211 232.256 484.467 232.013 484.467 231.713V224.096C484.467 223.796 484.211 223.553 483.894 223.553H478.169C474.215 223.553 471.01 226.592 471.01 230.341V242.818C471.01 243.568 470.369 244.176 469.578 244.176H467.36C467.044 244.176 466.787 244.419 466.787 244.719V252.675C466.787 252.975 467.044 253.218 467.36 253.218Z" stroke="white" stroke-width="0.956555" stroke-miterlimit="10"/>
<path d="M654.639 244.184H652.42C651.629 244.184 650.988 243.576 650.988 242.826V230.341C650.988 226.592 647.783 223.553 643.83 223.553H638.104C637.788 223.553 637.531 223.796 637.531 224.096L637.531 231.713C637.531 232.013 637.788 232.256 638.104 232.256H642.499C643.29 232.256 643.931 232.864 643.931 233.614V263.788C643.931 264.538 643.29 265.146 642.499 265.146H638.104C637.788 265.146 637.531 265.389 637.531 265.689V273.306C637.531 273.606 637.788 273.849 638.104 273.849H643.83C647.783 273.849 650.988 270.81 650.988 267.061V254.584C650.988 253.834 651.629 253.226 652.42 253.226H654.639C654.955 253.226 655.211 252.983 655.211 252.683V244.727C655.211 244.427 654.955 244.184 654.639 244.184Z" fill="#F9AB00"/>
<path d="M654.639 244.184H652.42C651.629 244.184 650.988 243.576 650.988 242.826V230.341C650.988 226.592 647.783 223.553 643.83 223.553H638.104C637.788 223.553 637.531 223.796 637.531 224.096L637.531 231.713C637.531 232.013 637.788 232.256 638.104 232.256H642.499C643.29 232.256 643.931 232.864 643.931 233.614V263.788C643.931 264.538 643.29 265.146 642.499 265.146H638.104C637.788 265.146 637.531 265.389 637.531 265.689V273.306C637.531 273.606 637.788 273.849 638.104 273.849H643.83C647.783 273.849 650.988 270.81 650.988 267.061V254.584C650.988 253.834 651.629 253.226 652.42 253.226H654.639C654.955 253.226 655.211 252.983 655.211 252.683V244.727C655.211 244.427 654.955 244.184 654.639 244.184Z" stroke="white" stroke-width="0.956555" stroke-miterlimit="10"/>
<path d="M509.162 240.324C508.509 241.538 507.531 242.478 506.226 243.143C504.921 243.808 503.297 244.141 501.352 244.141H497.623V228.035H501.352C503.297 228.035 504.921 228.367 506.226 229.033C507.531 229.698 508.509 230.632 509.162 231.834C509.814 233.036 510.14 234.454 510.14 236.088C510.14 237.698 509.814 239.111 509.162 240.324ZM508.829 225.146C506.799 224.084 504.38 223.553 501.574 223.553H492.639V248.622H501.574C504.38 248.622 506.799 248.097 508.829 247.047C510.86 245.996 512.423 244.526 513.519 242.635C514.614 240.745 515.162 238.562 515.162 236.088C515.162 233.614 514.614 231.437 513.519 229.558C512.423 227.679 510.86 226.209 508.829 225.146Z" fill="white"/>
<path d="M522.5 237.523C522.6 237.195 522.727 236.885 522.881 236.595C523.324 235.767 523.934 235.119 524.709 234.652C525.485 234.186 526.34 233.952 527.275 233.952C527.989 233.952 528.623 234.063 529.177 234.285C529.731 234.507 530.204 234.792 530.598 235.142C530.992 235.493 531.3 235.878 531.521 236.298C531.743 236.718 531.866 237.127 531.891 237.523H522.5ZM532.334 231.431C530.955 230.614 529.256 230.206 527.238 230.206C525.367 230.206 523.706 230.643 522.254 231.519C520.801 232.394 519.656 233.555 518.82 235.002C517.983 236.45 517.564 238.025 517.564 239.729C517.564 241.55 517.989 243.172 518.838 244.596C519.688 246.02 520.856 247.14 522.346 247.957C523.835 248.774 525.527 249.183 527.423 249.183C529.515 249.183 531.275 248.756 532.703 247.904C534.13 247.053 535.288 245.891 536.174 244.421L532.26 242.6C531.817 243.324 531.201 243.925 530.414 244.403C529.626 244.882 528.653 245.121 527.497 245.121C526.512 245.121 525.619 244.905 524.82 244.473C524.02 244.042 523.386 243.411 522.918 242.583C522.62 242.055 522.419 241.454 522.31 240.78H536.432C536.456 240.663 536.481 240.47 536.506 240.202C536.53 239.934 536.543 239.613 536.543 239.239C536.543 237.582 536.186 236.07 535.472 234.705C534.758 233.339 533.712 232.248 532.334 231.431Z" fill="white"/>
<path d="M547.234 242.39H546.938L542.175 230.766H536.674L544.649 248.622H549.449L557.498 230.766H552.071L547.234 242.39Z" fill="white"/>
<path d="M559.879 248.622H564.863V238.609H575.46V234.127H564.863V228.035H576.642V223.553H559.879V248.622Z" fill="white"/>
<path d="M583.039 237.523C583.139 237.195 583.266 236.885 583.42 236.595C583.863 235.767 584.473 235.119 585.248 234.652C586.023 234.186 586.878 233.952 587.814 233.952C588.528 233.952 589.162 234.063 589.716 234.285C590.27 234.507 590.743 234.792 591.137 235.142C591.531 235.493 591.839 235.878 592.06 236.298C592.282 236.718 592.405 237.127 592.43 237.523H583.039ZM592.873 231.431C591.494 230.614 589.795 230.206 587.777 230.206C585.906 230.206 584.245 230.643 582.793 231.519C581.34 232.394 580.195 233.555 579.359 235.002C578.522 236.45 578.104 238.025 578.104 239.729C578.104 241.55 578.528 243.172 579.377 244.596C580.227 246.02 581.395 247.14 582.885 247.957C584.374 248.774 586.066 249.183 587.962 249.183C590.054 249.183 591.814 248.756 593.242 247.904C594.669 247.053 595.827 245.891 596.713 244.421L592.799 242.6C592.356 243.324 591.74 243.925 590.953 244.403C590.165 244.882 589.192 245.121 588.036 245.121C587.051 245.121 586.158 244.905 585.359 244.473C584.559 244.042 583.925 243.411 583.457 242.583C583.159 242.055 582.957 241.454 582.849 240.78H596.971C596.995 240.663 597.02 240.47 597.045 240.202C597.069 239.934 597.082 239.613 597.082 239.239C597.082 237.582 596.725 236.07 596.011 234.705C595.297 233.339 594.251 232.248 592.873 231.431Z" fill="white"/>
<path d="M609.549 237.979L606.779 237.348C606.09 237.185 605.499 236.94 605.007 236.613C604.514 236.286 604.269 235.901 604.269 235.458C604.269 235.037 604.514 234.676 605.007 234.372C605.499 234.069 606.164 233.917 607.001 233.917C607.715 233.917 608.386 234.057 609.013 234.337C609.641 234.617 610.152 235.107 610.546 235.808L614.681 234.092C614.238 233.205 613.647 232.476 612.909 231.904C612.17 231.332 611.296 230.906 610.287 230.626C609.278 230.346 608.146 230.206 606.89 230.206C605.536 230.206 604.299 230.428 603.18 230.871C602.059 231.315 601.173 231.933 600.521 232.727C599.869 233.52 599.543 234.454 599.543 235.528C599.543 236.485 599.795 237.331 600.299 238.066C600.804 238.801 601.463 239.409 602.275 239.887C603.087 240.365 603.949 240.698 604.86 240.885L607.075 241.34C607.592 241.433 608.096 241.556 608.589 241.707C609.081 241.859 609.493 242.069 609.826 242.338C610.158 242.606 610.324 242.974 610.324 243.441C610.324 244.094 610.004 244.543 609.364 244.789C608.724 245.034 608.01 245.156 607.222 245.156C606.263 245.156 605.425 244.941 604.712 244.508C603.998 244.077 603.432 243.441 603.013 242.6L598.693 244.386C599.038 245.25 599.567 246.044 600.281 246.767C600.995 247.49 601.924 248.074 603.069 248.517C604.213 248.961 605.598 249.183 607.222 249.183C608.7 249.183 610.041 248.943 611.247 248.465C612.453 247.987 613.413 247.309 614.127 246.434C614.841 245.559 615.198 244.538 615.198 243.37C615.198 242.064 614.724 240.943 613.776 240.009C612.829 239.076 611.419 238.399 609.549 237.979Z" fill="white"/>
<path d="M628.225 244.438C627.88 244.543 627.51 244.596 627.117 244.596C626.28 244.596 625.677 244.392 625.308 243.983C624.938 243.575 624.754 242.939 624.754 242.075V234.687H629.369V230.766H624.754V225.724H619.917V230.766H616.631V234.687H619.917V242.915C619.917 244.783 620.471 246.248 621.578 247.309C622.686 248.372 624.212 248.902 626.157 248.902C626.748 248.902 627.32 248.85 627.874 248.745C628.428 248.64 628.975 248.494 629.517 248.307V243.826C629 244.129 628.569 244.333 628.225 244.438Z" fill="white"/>
<path d="M502.326 273.849H619.487C624.881 273.849 629.255 269.702 629.255 264.587C629.255 259.472 624.881 255.325 619.487 255.325H502.326C496.932 255.325 492.559 259.472 492.559 264.587C492.559 269.702 496.932 273.849 502.326 273.849Z" fill="#1E1E1E"/>
<path d="M544.139 260.53H545.204V268.579H549.184V269.606H544.139V260.53ZM552.565 269.808C552.092 269.808 551.669 269.715 551.298 269.529C550.926 269.344 550.639 269.09 550.436 268.769C550.233 268.439 550.132 268.068 550.132 267.654C550.132 266.969 550.389 266.437 550.905 266.057C551.42 265.668 552.071 265.474 552.857 265.474C553.245 265.474 553.604 265.516 553.934 265.6C554.272 265.685 554.53 265.782 554.707 265.892V265.499C554.707 265.017 554.538 264.633 554.2 264.345C553.862 264.05 553.435 263.902 552.92 263.902C552.557 263.902 552.223 263.982 551.919 264.143C551.614 264.295 551.374 264.51 551.196 264.789L550.385 264.181C550.639 263.792 550.985 263.488 551.424 263.268C551.872 263.048 552.367 262.939 552.907 262.939C553.786 262.939 554.475 263.171 554.973 263.636C555.48 264.092 555.734 264.717 555.734 265.512V269.606H554.707V268.68H554.656C554.471 268.993 554.192 269.259 553.82 269.479C553.448 269.698 553.03 269.808 552.565 269.808ZM552.667 268.858C553.03 268.858 553.368 268.765 553.68 268.579C553.993 268.393 554.242 268.144 554.428 267.831C554.614 267.518 554.707 267.176 554.707 266.804C554.504 266.669 554.255 266.559 553.959 266.475C553.664 266.39 553.351 266.348 553.021 266.348C552.43 266.348 551.982 266.471 551.678 266.716C551.382 266.961 551.234 267.278 551.234 267.666C551.234 268.021 551.369 268.308 551.64 268.528C551.91 268.748 552.252 268.858 552.667 268.858ZM560.137 272.546C559.376 272.546 558.747 272.369 558.248 272.014C557.758 271.659 557.428 271.232 557.259 270.734L558.235 270.315C558.379 270.687 558.616 270.987 558.945 271.215C559.283 271.452 559.68 271.57 560.137 271.57C560.804 271.57 561.32 271.376 561.683 270.987C562.055 270.598 562.241 270.049 562.241 269.339V268.617H562.19C561.979 268.946 561.679 269.217 561.29 269.428C560.91 269.631 560.475 269.732 559.985 269.732C559.427 269.732 558.916 269.589 558.451 269.301C557.995 269.014 557.631 268.613 557.361 268.097C557.09 267.582 556.955 266.995 556.955 266.335C556.955 265.685 557.09 265.102 557.361 264.586C557.631 264.062 557.995 263.657 558.451 263.369C558.916 263.082 559.427 262.939 559.985 262.939C560.475 262.939 560.91 263.044 561.29 263.255C561.679 263.458 561.979 263.729 562.19 264.067H562.241V263.141H563.267V269.352C563.267 270.391 562.98 271.181 562.405 271.722C561.831 272.271 561.075 272.546 560.137 272.546ZM560.137 268.756C560.525 268.756 560.876 268.659 561.189 268.465C561.51 268.27 561.763 267.992 561.949 267.628C562.144 267.265 562.241 266.834 562.241 266.335C562.241 265.828 562.144 265.393 561.949 265.03C561.763 264.667 561.51 264.392 561.189 264.206C560.876 264.012 560.525 263.915 560.137 263.915C559.748 263.915 559.393 264.012 559.072 264.206C558.751 264.4 558.493 264.679 558.299 265.043C558.113 265.406 558.02 265.837 558.02 266.335C558.02 266.834 558.113 267.269 558.299 267.641C558.493 268.004 558.751 268.283 559.072 268.477C559.393 268.663 559.748 268.756 560.137 268.756ZM567.904 269.808C567.27 269.808 566.7 269.656 566.193 269.352C565.686 269.048 565.289 268.634 565.001 268.11C564.722 267.586 564.583 267.007 564.583 266.373C564.583 265.74 564.722 265.161 565.001 264.637C565.289 264.113 565.686 263.699 566.193 263.395C566.7 263.091 567.27 262.939 567.904 262.939C568.538 262.939 569.108 263.091 569.615 263.395C570.122 263.699 570.515 264.113 570.794 264.637C571.081 265.161 571.225 265.74 571.225 266.373C571.225 267.007 571.081 267.586 570.794 268.11C570.515 268.634 570.122 269.048 569.615 269.352C569.108 269.656 568.538 269.808 567.904 269.808ZM567.904 268.832C568.301 268.832 568.669 268.735 569.006 268.541C569.353 268.338 569.628 268.051 569.83 267.679C570.042 267.307 570.147 266.872 570.147 266.373C570.147 265.875 570.042 265.44 569.83 265.068C569.628 264.696 569.353 264.413 569.006 264.219C568.669 264.016 568.301 263.915 567.904 263.915C567.507 263.915 567.135 264.016 566.788 264.219C566.442 264.413 566.163 264.696 565.952 265.068C565.749 265.44 565.648 265.875 565.648 266.373C565.648 266.872 565.749 267.307 565.952 267.679C566.163 268.051 566.442 268.338 566.788 268.541C567.135 268.735 567.507 268.832 567.904 268.832ZM574.797 269.808C574.104 269.808 573.525 269.648 573.06 269.327C572.595 268.997 572.266 268.579 572.072 268.072L573.035 267.641C573.195 268.03 573.432 268.33 573.745 268.541C574.066 268.752 574.416 268.858 574.797 268.858C575.202 268.858 575.549 268.777 575.836 268.617C576.123 268.448 576.267 268.211 576.267 267.907C576.267 267.637 576.153 267.421 575.925 267.261C575.697 267.092 575.337 266.948 574.847 266.83L574.061 266.627C573.546 266.5 573.124 266.285 572.794 265.981C572.464 265.676 572.3 265.283 572.3 264.802C572.3 264.43 572.41 264.105 572.629 263.826C572.857 263.538 573.157 263.319 573.529 263.167C573.901 263.015 574.302 262.939 574.733 262.939C575.299 262.939 575.802 263.061 576.242 263.306C576.689 263.551 577.006 263.893 577.192 264.333L576.254 264.764C575.967 264.189 575.456 263.902 574.721 263.902C574.366 263.902 574.053 263.986 573.783 264.155C573.521 264.316 573.39 264.523 573.39 264.776C573.39 265.013 573.483 265.207 573.669 265.359C573.854 265.503 574.133 265.621 574.505 265.714L575.443 265.955C576.077 266.116 576.554 266.357 576.875 266.678C577.196 266.99 577.357 267.375 577.357 267.831C577.357 268.228 577.243 268.579 577.015 268.883C576.787 269.179 576.478 269.407 576.089 269.568C575.701 269.728 575.27 269.808 574.797 269.808Z" fill="white"/>
<path d="M502.326 273.849H619.487C624.881 273.849 629.255 269.702 629.255 264.587C629.255 259.472 624.881 255.325 619.487 255.325H502.326C496.932 255.325 492.559 259.472 492.559 264.587C492.559 269.702 496.932 273.849 502.326 273.849Z" stroke="white" stroke-width="0.956555" stroke-miterlimit="10" stroke-linejoin="round"/>
</g>
</g>
<defs>
<clipPath id="clip0_287_4817">
<rect width="190" height="52" fill="white" transform="translate(466 222.701)"/>
</clipPath>
</defs>
</svg>
